<svg xmlns="http://www.w3.org/2000/svg" viewBox="0 0 1023.03 1021.64"><defs><style>.cls-1{fill:none;}.cls-2{fill:#1a97a7;}</style></defs><g id="Calque_2" data-name="Calque 2"><g id="Working_place" data-name="Working place"><rect class="cls-1" width="1023.03" height="1021.64"/><path class="cls-2" d="M172.59,893.45a44.55,44.55,0,0,1-44.5-44.5V172a44.55,44.55,0,0,1,44.5-44.5h677a44.55,44.55,0,0,1,44.5,44.5V849a44.55,44.55,0,0,1-44.5,44.5ZM571.72,678.7a93.19,93.19,0,1,0,21.35-35L426.27,540.81a93.67,93.67,0,0,0,.21-60.12l167-103a93,93,0,1,0-21.59-34.86L405.13,445.69a93.13,93.13,0,1,0-.45,130Z"/><path class="cls-2" d="M849.59,128a44,44,0,0,1,44,44V849a44,44,0,0,1-44,44h-677a44.05,44.05,0,0,1-44-44V172a44.05,44.05,0,0,1,44-44h677M571.32,342.59,405.2,445.05a93.62,93.62,0,1,0-.44,131.25L571.12,678.91A93.68,93.68,0,1,0,593,643.06L426.87,540.59a94,94,0,0,0,.21-59.68L593.44,378.29a93.34,93.34,0,1,0-22.12-35.7M849.59,127h-677a45,45,0,0,0-45,45V849a45,45,0,0,0,45,45h677a45,45,0,0,0,45-45V172a45,45,0,0,0-45-45ZM405,446.33,572.53,343a92.72,92.72,0,1,1,21.07,34L425.87,480.48a92.82,92.82,0,0,1-.21,60.54L593.15,644.33a92.39,92.39,0,1,1-20.83,34.15L404.6,575a92.62,92.62,0,1,1,.44-128.7Z"/></g></g></svg>