<svg xmlns="http://www.w3.org/2000/svg" viewBox="0 0 1023.09 1021.7"><defs><style>.cls-1{fill:none;}.cls-2{fill:#1a97a7;}</style></defs><g id="Calque_2" data-name="Calque 2"><g id="Working_place" data-name="Working place"><rect class="cls-1" width="1023.09" height="1021.7"/><path class="cls-2" d="M511.62,453.3c-163.86,0-306.93,89-383.48,221.36C204.69,807,347.76,896,511.62,896s306.93-89,383.47-221.35C818.55,542.33,675.47,453.3,511.62,453.3Zm0,395.54A174.18,174.18,0,1,1,685.8,674.66,174.18,174.18,0,0,1,511.62,848.84Z"/><path class="cls-2" d="M511.62,556.72a117.92,117.92,0,0,0-29.9,3.83,59,59,0,0,1-83,79.8,117.95,117.95,0,1,0,112.86-83.63Z"/><path class="cls-2" d="M339.41,438.16l-32.54-20.07a59.78,59.78,0,1,1,.28-83.06l108.09-66.67a59.85,59.85,0,1,1,13.6,21.94L320.6,357.07a60,60,0,0,1-.14,39.07l50.3,31a445.25,445.25,0,0,1,252.33-2.67V158a29,29,0,0,0-29-29H157.14a29.05,29.05,0,0,0-29,29V594.87a29,29,0,0,0,3,12.81A444.18,444.18,0,0,1,339.41,438.16Z"/></g></g></svg>