<svg id="workflow" xmlns="http://www.w3.org/2000/svg" viewBox="0 0 20 24.01"><defs><style>.cls-1{fill:#495057;}</style></defs><title>icon_trash3</title><rect class="cls-1" y="4" width="20" height="2" rx="0.57"/><path class="cls-1" d="M4,6V21.09A2.77,2.77,0,0,0,6.59,24H17.41A2.77,2.77,0,0,0,20,21.09V6ZM9,19.51a1.06,1.06,0,0,1-1,1.11H8a1.06,1.06,0,0,1-1-1.11V9.37A1.07,1.07,0,0,1,8,8.25H8A1.07,1.07,0,0,1,9,9.37Zm4,0a1.06,1.06,0,0,1-1,1.11h0a1.06,1.06,0,0,1-1-1.11V9.37a1.07,1.07,0,0,1,1-1.12h0a1.07,1.07,0,0,1,1,1.12Zm4,0a1.06,1.06,0,0,1-1,1.11h0a1.06,1.06,0,0,1-1-1.11V9.37a1.06,1.06,0,0,1,1-1.12h0a1.07,1.07,0,0,1,1,1.12Z" transform="translate(-2 0.01)"/><path class="cls-1" d="M17.37,1.47A2,2,0,0,0,15.5,0h-7A2,2,0,0,0,6.63,1.46L6,4H8l.5-2V2h7V2L16,4h2Z" transform="translate(-2 0.01)"/></svg>