<svg xmlns="http://www.w3.org/2000/svg" viewBox="0 0 864 864"><defs><style>.cls-1{fill:#d03130;}.cls-2{fill:#fff;}</style></defs><title>Fichier 2</title><g id="Calque_2" data-name="Calque 2"><g id="Calque_1-2" data-name="Calque 1"><circle class="cls-1" cx="432" cy="432" r="432"/><path class="cls-2" d="M532.45,432,661.81,302.65a71.26,71.26,0,0,0,0-100.46h0a71.26,71.26,0,0,0-100.46,0L432,331.55,302.65,202.19a71.26,71.26,0,0,0-100.46,0h0a71.26,71.26,0,0,0,0,100.46L331.54,432,202.19,561.35a71.26,71.26,0,0,0,0,100.46h0a71.26,71.26,0,0,0,100.46,0L432,532.45,561.35,661.81a71.26,71.26,0,0,0,100.46,0h0a71.26,71.26,0,0,0,0-100.46Z"/></g></g></svg>